<mxfile host="app.diagrams.net" agent="Mozilla/5.0 (Windows NT 10.0; Win64; x64) AppleWebKit/537.36 (KHTML, like Gecko) Chrome/131.0.0.0 Safari/537.36" version="25.0.1">
  <diagram name="第 1 页" id="TjLUrsgqtLSb1FgyB3Km">
    <mxGraphModel dx="1434" dy="738" grid="1" gridSize="10" guides="1" tooltips="1" connect="1" arrows="1" fold="1" page="1" pageScale="1" pageWidth="827" pageHeight="1169" math="0" shadow="0">
      <root>
        <mxCell id="0" />
        <mxCell id="1" parent="0" />
        <mxCell id="KTgzHnojF0-aBPa9-sYv-3" value="" style="edgeStyle=orthogonalEdgeStyle;rounded=0;orthogonalLoop=1;jettySize=auto;html=1;" parent="1" source="KTgzHnojF0-aBPa9-sYv-1" target="KTgzHnojF0-aBPa9-sYv-2" edge="1">
          <mxGeometry relative="1" as="geometry" />
        </mxCell>
        <mxCell id="KTgzHnojF0-aBPa9-sYv-1" value="游戏开始" style="ellipse;whiteSpace=wrap;html=1;" parent="1" vertex="1">
          <mxGeometry x="340" y="10" width="120" height="80" as="geometry" />
        </mxCell>
        <mxCell id="KTgzHnojF0-aBPa9-sYv-5" style="edgeStyle=orthogonalEdgeStyle;rounded=0;orthogonalLoop=1;jettySize=auto;html=1;exitX=0.5;exitY=1;exitDx=0;exitDy=0;entryX=0.5;entryY=0;entryDx=0;entryDy=0;" parent="1" source="KTgzHnojF0-aBPa9-sYv-2" target="KTgzHnojF0-aBPa9-sYv-4" edge="1">
          <mxGeometry relative="1" as="geometry" />
        </mxCell>
        <mxCell id="KTgzHnojF0-aBPa9-sYv-11" value="" style="edgeStyle=orthogonalEdgeStyle;rounded=0;orthogonalLoop=1;jettySize=auto;html=1;" parent="1" source="KTgzHnojF0-aBPa9-sYv-2" target="KTgzHnojF0-aBPa9-sYv-10" edge="1">
          <mxGeometry relative="1" as="geometry" />
        </mxCell>
        <mxCell id="KTgzHnojF0-aBPa9-sYv-2" value="是否有auth" style="rhombus;whiteSpace=wrap;html=1;" parent="1" vertex="1">
          <mxGeometry x="337.5" y="140" width="125" height="80" as="geometry" />
        </mxCell>
        <mxCell id="KTgzHnojF0-aBPa9-sYv-8" style="edgeStyle=orthogonalEdgeStyle;rounded=0;orthogonalLoop=1;jettySize=auto;html=1;exitX=0;exitY=0.5;exitDx=0;exitDy=0;" parent="1" source="KTgzHnojF0-aBPa9-sYv-4" target="KTgzHnojF0-aBPa9-sYv-7" edge="1">
          <mxGeometry relative="1" as="geometry">
            <Array as="points">
              <mxPoint x="230" y="310" />
              <mxPoint x="230" y="1000" />
              <mxPoint x="400" y="1000" />
            </Array>
          </mxGeometry>
        </mxCell>
        <mxCell id="KTgzHnojF0-aBPa9-sYv-20" value="" style="edgeStyle=orthogonalEdgeStyle;rounded=0;orthogonalLoop=1;jettySize=auto;html=1;" parent="1" source="KTgzHnojF0-aBPa9-sYv-4" target="KTgzHnojF0-aBPa9-sYv-19" edge="1">
          <mxGeometry relative="1" as="geometry" />
        </mxCell>
        <mxCell id="KTgzHnojF0-aBPa9-sYv-4" value="是否有auth，或有distinctId" style="rhombus;whiteSpace=wrap;html=1;" parent="1" vertex="1">
          <mxGeometry x="337.5" y="270" width="125" height="80" as="geometry" />
        </mxCell>
        <mxCell id="KTgzHnojF0-aBPa9-sYv-6" value="是" style="text;html=1;align=center;verticalAlign=middle;resizable=0;points=[];autosize=1;strokeColor=none;fillColor=none;" parent="1" vertex="1">
          <mxGeometry x="394" y="228" width="40" height="30" as="geometry" />
        </mxCell>
        <mxCell id="KTgzHnojF0-aBPa9-sYv-7" value="结束" style="ellipse;whiteSpace=wrap;html=1;" parent="1" vertex="1">
          <mxGeometry x="340" y="1050" width="120" height="80" as="geometry" />
        </mxCell>
        <mxCell id="KTgzHnojF0-aBPa9-sYv-9" value="否" style="text;html=1;align=center;verticalAlign=middle;resizable=0;points=[];autosize=1;strokeColor=none;fillColor=none;" parent="1" vertex="1">
          <mxGeometry x="190" y="468" width="40" height="30" as="geometry" />
        </mxCell>
        <mxCell id="KTgzHnojF0-aBPa9-sYv-14" value="" style="edgeStyle=orthogonalEdgeStyle;rounded=0;orthogonalLoop=1;jettySize=auto;html=1;" parent="1" source="KTgzHnojF0-aBPa9-sYv-10" target="KTgzHnojF0-aBPa9-sYv-13" edge="1">
          <mxGeometry relative="1" as="geometry" />
        </mxCell>
        <mxCell id="KTgzHnojF0-aBPa9-sYv-17" style="edgeStyle=orthogonalEdgeStyle;rounded=0;orthogonalLoop=1;jettySize=auto;html=1;exitX=0.5;exitY=1;exitDx=0;exitDy=0;entryX=1;entryY=0.5;entryDx=0;entryDy=0;" parent="1" source="KTgzHnojF0-aBPa9-sYv-10" target="KTgzHnojF0-aBPa9-sYv-4" edge="1">
          <mxGeometry relative="1" as="geometry" />
        </mxCell>
        <mxCell id="KTgzHnojF0-aBPa9-sYv-10" value="是否有platformAuthId" style="rhombus;whiteSpace=wrap;html=1;" parent="1" vertex="1">
          <mxGeometry x="520" y="140" width="125" height="80" as="geometry" />
        </mxCell>
        <mxCell id="KTgzHnojF0-aBPa9-sYv-12" value="否" style="text;html=1;align=center;verticalAlign=middle;resizable=0;points=[];autosize=1;strokeColor=none;fillColor=none;" parent="1" vertex="1">
          <mxGeometry x="460" y="148" width="40" height="30" as="geometry" />
        </mxCell>
        <mxCell id="KTgzHnojF0-aBPa9-sYv-16" style="edgeStyle=orthogonalEdgeStyle;rounded=0;orthogonalLoop=1;jettySize=auto;html=1;exitX=0.5;exitY=1;exitDx=0;exitDy=0;entryX=1;entryY=0.5;entryDx=0;entryDy=0;" parent="1" source="KTgzHnojF0-aBPa9-sYv-13" target="KTgzHnojF0-aBPa9-sYv-4" edge="1">
          <mxGeometry relative="1" as="geometry" />
        </mxCell>
        <mxCell id="KTgzHnojF0-aBPa9-sYv-13" value="设置auth" style="rounded=0;whiteSpace=wrap;html=1;" parent="1" vertex="1">
          <mxGeometry x="690" y="150" width="120" height="60" as="geometry" />
        </mxCell>
        <mxCell id="KTgzHnojF0-aBPa9-sYv-15" value="是" style="text;html=1;align=center;verticalAlign=middle;resizable=0;points=[];autosize=1;strokeColor=none;fillColor=none;" parent="1" vertex="1">
          <mxGeometry x="640" y="148" width="40" height="30" as="geometry" />
        </mxCell>
        <mxCell id="KTgzHnojF0-aBPa9-sYv-18" value="否" style="text;html=1;align=center;verticalAlign=middle;resizable=0;points=[];autosize=1;strokeColor=none;fillColor=none;" parent="1" vertex="1">
          <mxGeometry x="580" y="238" width="40" height="30" as="geometry" />
        </mxCell>
        <mxCell id="KTgzHnojF0-aBPa9-sYv-23" value="" style="edgeStyle=orthogonalEdgeStyle;rounded=0;orthogonalLoop=1;jettySize=auto;html=1;" parent="1" source="KTgzHnojF0-aBPa9-sYv-19" target="KTgzHnojF0-aBPa9-sYv-22" edge="1">
          <mxGeometry relative="1" as="geometry" />
        </mxCell>
        <mxCell id="KTgzHnojF0-aBPa9-sYv-27" value="" style="edgeStyle=orthogonalEdgeStyle;rounded=0;orthogonalLoop=1;jettySize=auto;html=1;" parent="1" source="KTgzHnojF0-aBPa9-sYv-19" target="KTgzHnojF0-aBPa9-sYv-26" edge="1">
          <mxGeometry relative="1" as="geometry" />
        </mxCell>
        <mxCell id="KTgzHnojF0-aBPa9-sYv-19" value="是否有distinctId" style="rhombus;whiteSpace=wrap;html=1;" parent="1" vertex="1">
          <mxGeometry x="337.5" y="400" width="125" height="80" as="geometry" />
        </mxCell>
        <mxCell id="KTgzHnojF0-aBPa9-sYv-21" value="是" style="text;html=1;align=center;verticalAlign=middle;resizable=0;points=[];autosize=1;strokeColor=none;fillColor=none;" parent="1" vertex="1">
          <mxGeometry x="394" y="350" width="40" height="30" as="geometry" />
        </mxCell>
        <mxCell id="KTgzHnojF0-aBPa9-sYv-30" value="" style="edgeStyle=orthogonalEdgeStyle;rounded=0;orthogonalLoop=1;jettySize=auto;html=1;" parent="1" source="KTgzHnojF0-aBPa9-sYv-22" target="KTgzHnojF0-aBPa9-sYv-29" edge="1">
          <mxGeometry relative="1" as="geometry" />
        </mxCell>
        <mxCell id="KTgzHnojF0-aBPa9-sYv-22" value="调用Api.startNewGame" style="whiteSpace=wrap;html=1;" parent="1" vertex="1">
          <mxGeometry x="340" y="540" width="120" height="60" as="geometry" />
        </mxCell>
        <mxCell id="KTgzHnojF0-aBPa9-sYv-24" value="是" style="text;html=1;align=center;verticalAlign=middle;resizable=0;points=[];autosize=1;strokeColor=none;fillColor=none;" parent="1" vertex="1">
          <mxGeometry x="400" y="498" width="40" height="30" as="geometry" />
        </mxCell>
        <mxCell id="KTgzHnojF0-aBPa9-sYv-32" style="edgeStyle=orthogonalEdgeStyle;rounded=0;orthogonalLoop=1;jettySize=auto;html=1;exitX=0.5;exitY=1;exitDx=0;exitDy=0;entryX=0.5;entryY=0;entryDx=0;entryDy=0;" parent="1" source="KTgzHnojF0-aBPa9-sYv-26" target="KTgzHnojF0-aBPa9-sYv-29" edge="1">
          <mxGeometry relative="1" as="geometry">
            <Array as="points">
              <mxPoint x="585" y="650" />
            </Array>
          </mxGeometry>
        </mxCell>
        <mxCell id="KTgzHnojF0-aBPa9-sYv-26" value="调用Api.start" style="whiteSpace=wrap;html=1;" parent="1" vertex="1">
          <mxGeometry x="525" y="410" width="120" height="60" as="geometry" />
        </mxCell>
        <mxCell id="KTgzHnojF0-aBPa9-sYv-28" value="否" style="text;html=1;align=center;verticalAlign=middle;resizable=0;points=[];autosize=1;strokeColor=none;fillColor=none;" parent="1" vertex="1">
          <mxGeometry x="470" y="408" width="40" height="30" as="geometry" />
        </mxCell>
        <mxCell id="KTgzHnojF0-aBPa9-sYv-37" value="" style="edgeStyle=orthogonalEdgeStyle;rounded=0;orthogonalLoop=1;jettySize=auto;html=1;" parent="1" source="KTgzHnojF0-aBPa9-sYv-29" target="KTgzHnojF0-aBPa9-sYv-36" edge="1">
          <mxGeometry relative="1" as="geometry" />
        </mxCell>
        <mxCell id="KTgzHnojF0-aBPa9-sYv-40" style="edgeStyle=orthogonalEdgeStyle;rounded=0;orthogonalLoop=1;jettySize=auto;html=1;exitX=1;exitY=0.5;exitDx=0;exitDy=0;entryX=0.5;entryY=0;entryDx=0;entryDy=0;" parent="1" source="KTgzHnojF0-aBPa9-sYv-29" target="KTgzHnojF0-aBPa9-sYv-7" edge="1">
          <mxGeometry relative="1" as="geometry">
            <Array as="points">
              <mxPoint x="640" y="690" />
              <mxPoint x="640" y="1000" />
              <mxPoint x="400" y="1000" />
            </Array>
          </mxGeometry>
        </mxCell>
        <mxCell id="KTgzHnojF0-aBPa9-sYv-29" value="接口调用是否成功" style="rhombus;whiteSpace=wrap;html=1;" parent="1" vertex="1">
          <mxGeometry x="337.5" y="650" width="125" height="80" as="geometry" />
        </mxCell>
        <mxCell id="KTgzHnojF0-aBPa9-sYv-39" style="edgeStyle=orthogonalEdgeStyle;rounded=0;orthogonalLoop=1;jettySize=auto;html=1;exitX=0.5;exitY=1;exitDx=0;exitDy=0;entryX=0.5;entryY=0;entryDx=0;entryDy=0;" parent="1" source="KTgzHnojF0-aBPa9-sYv-36" target="KTgzHnojF0-aBPa9-sYv-7" edge="1">
          <mxGeometry relative="1" as="geometry" />
        </mxCell>
        <mxCell id="KTgzHnojF0-aBPa9-sYv-69" value="" style="edgeStyle=orthogonalEdgeStyle;rounded=0;orthogonalLoop=1;jettySize=auto;html=1;" parent="1" source="KTgzHnojF0-aBPa9-sYv-36" target="KTgzHnojF0-aBPa9-sYv-38" edge="1">
          <mxGeometry relative="1" as="geometry" />
        </mxCell>
        <mxCell id="KTgzHnojF0-aBPa9-sYv-36" value="设置startData，displayId，auth" style="whiteSpace=wrap;html=1;" parent="1" vertex="1">
          <mxGeometry x="340" y="790" width="120" height="60" as="geometry" />
        </mxCell>
        <mxCell id="KTgzHnojF0-aBPa9-sYv-38" value="是" style="text;html=1;align=center;verticalAlign=middle;resizable=0;points=[];autosize=1;strokeColor=none;fillColor=none;" parent="1" vertex="1">
          <mxGeometry x="390" y="738" width="40" height="30" as="geometry" />
        </mxCell>
        <mxCell id="KTgzHnojF0-aBPa9-sYv-41" value="否" style="text;html=1;align=center;verticalAlign=middle;resizable=0;points=[];autosize=1;strokeColor=none;fillColor=none;" parent="1" vertex="1">
          <mxGeometry x="630" y="808" width="40" height="30" as="geometry" />
        </mxCell>
        <mxCell id="KTgzHnojF0-aBPa9-sYv-44" value="" style="edgeStyle=orthogonalEdgeStyle;rounded=0;orthogonalLoop=1;jettySize=auto;html=1;" parent="1" source="KTgzHnojF0-aBPa9-sYv-42" target="KTgzHnojF0-aBPa9-sYv-43" edge="1">
          <mxGeometry relative="1" as="geometry" />
        </mxCell>
        <mxCell id="KTgzHnojF0-aBPa9-sYv-42" value="谷歌登录" style="ellipse;whiteSpace=wrap;html=1;" parent="1" vertex="1">
          <mxGeometry x="1560" width="120" height="80" as="geometry" />
        </mxCell>
        <mxCell id="KTgzHnojF0-aBPa9-sYv-46" style="edgeStyle=orthogonalEdgeStyle;rounded=0;orthogonalLoop=1;jettySize=auto;html=1;exitX=0.5;exitY=1;exitDx=0;exitDy=0;entryX=0.5;entryY=0;entryDx=0;entryDy=0;" parent="1" source="KTgzHnojF0-aBPa9-sYv-43" target="KTgzHnojF0-aBPa9-sYv-45" edge="1">
          <mxGeometry relative="1" as="geometry" />
        </mxCell>
        <mxCell id="KTgzHnojF0-aBPa9-sYv-50" style="edgeStyle=orthogonalEdgeStyle;rounded=0;orthogonalLoop=1;jettySize=auto;html=1;exitX=0.5;exitY=1;exitDx=0;exitDy=0;entryX=0.5;entryY=0;entryDx=0;entryDy=0;" parent="1" source="KTgzHnojF0-aBPa9-sYv-43" target="KTgzHnojF0-aBPa9-sYv-49" edge="1">
          <mxGeometry relative="1" as="geometry" />
        </mxCell>
        <mxCell id="KTgzHnojF0-aBPa9-sYv-43" value="调用原生端进行登录" style="rounded=0;whiteSpace=wrap;html=1;" parent="1" vertex="1">
          <mxGeometry x="1560" y="160" width="120" height="60" as="geometry" />
        </mxCell>
        <mxCell id="KTgzHnojF0-aBPa9-sYv-67" style="edgeStyle=orthogonalEdgeStyle;rounded=0;orthogonalLoop=1;jettySize=auto;html=1;exitX=0.5;exitY=1;exitDx=0;exitDy=0;" parent="1" source="KTgzHnojF0-aBPa9-sYv-45" target="KTgzHnojF0-aBPa9-sYv-47" edge="1">
          <mxGeometry relative="1" as="geometry">
            <Array as="points">
              <mxPoint x="1470" y="1030" />
              <mxPoint x="1670" y="1030" />
            </Array>
          </mxGeometry>
        </mxCell>
        <mxCell id="KTgzHnojF0-aBPa9-sYv-45" value="登录失败" style="rounded=0;whiteSpace=wrap;html=1;" parent="1" vertex="1">
          <mxGeometry x="1410" y="320" width="120" height="60" as="geometry" />
        </mxCell>
        <mxCell id="KTgzHnojF0-aBPa9-sYv-47" value="结束" style="ellipse;whiteSpace=wrap;html=1;" parent="1" vertex="1">
          <mxGeometry x="1610" y="1290" width="120" height="80" as="geometry" />
        </mxCell>
        <mxCell id="KTgzHnojF0-aBPa9-sYv-52" value="" style="edgeStyle=orthogonalEdgeStyle;rounded=0;orthogonalLoop=1;jettySize=auto;html=1;" parent="1" source="KTgzHnojF0-aBPa9-sYv-49" target="KTgzHnojF0-aBPa9-sYv-51" edge="1">
          <mxGeometry relative="1" as="geometry" />
        </mxCell>
        <mxCell id="KTgzHnojF0-aBPa9-sYv-49" value="登录成功" style="rounded=0;whiteSpace=wrap;html=1;" parent="1" vertex="1">
          <mxGeometry x="1700" y="320" width="120" height="60" as="geometry" />
        </mxCell>
        <mxCell id="KTgzHnojF0-aBPa9-sYv-54" style="edgeStyle=orthogonalEdgeStyle;rounded=0;orthogonalLoop=1;jettySize=auto;html=1;exitX=0.5;exitY=1;exitDx=0;exitDy=0;entryX=0.5;entryY=0;entryDx=0;entryDy=0;" parent="1" source="KTgzHnojF0-aBPa9-sYv-51" target="KTgzHnojF0-aBPa9-sYv-53" edge="1">
          <mxGeometry relative="1" as="geometry" />
        </mxCell>
        <mxCell id="KTgzHnojF0-aBPa9-sYv-57" style="edgeStyle=orthogonalEdgeStyle;rounded=0;orthogonalLoop=1;jettySize=auto;html=1;exitX=0.5;exitY=1;exitDx=0;exitDy=0;" parent="1" source="KTgzHnojF0-aBPa9-sYv-51" target="KTgzHnojF0-aBPa9-sYv-56" edge="1">
          <mxGeometry relative="1" as="geometry" />
        </mxCell>
        <mxCell id="KTgzHnojF0-aBPa9-sYv-51" value="调用原生端获取登录信息" style="rounded=0;whiteSpace=wrap;html=1;" parent="1" vertex="1">
          <mxGeometry x="1700" y="438" width="120" height="60" as="geometry" />
        </mxCell>
        <mxCell id="KTgzHnojF0-aBPa9-sYv-55" style="edgeStyle=orthogonalEdgeStyle;rounded=0;orthogonalLoop=1;jettySize=auto;html=1;exitX=0;exitY=0.5;exitDx=0;exitDy=0;entryX=1;entryY=0.5;entryDx=0;entryDy=0;" parent="1" source="KTgzHnojF0-aBPa9-sYv-53" target="KTgzHnojF0-aBPa9-sYv-45" edge="1">
          <mxGeometry relative="1" as="geometry" />
        </mxCell>
        <mxCell id="KTgzHnojF0-aBPa9-sYv-53" value="获取信息失败" style="rounded=0;whiteSpace=wrap;html=1;" parent="1" vertex="1">
          <mxGeometry x="1590" y="540" width="120" height="60" as="geometry" />
        </mxCell>
        <mxCell id="KTgzHnojF0-aBPa9-sYv-59" value="" style="edgeStyle=orthogonalEdgeStyle;rounded=0;orthogonalLoop=1;jettySize=auto;html=1;" parent="1" source="KTgzHnojF0-aBPa9-sYv-56" target="KTgzHnojF0-aBPa9-sYv-58" edge="1">
          <mxGeometry relative="1" as="geometry" />
        </mxCell>
        <mxCell id="KTgzHnojF0-aBPa9-sYv-56" value="获取信息成功" style="rounded=0;whiteSpace=wrap;html=1;" parent="1" vertex="1">
          <mxGeometry x="1820" y="540" width="120" height="60" as="geometry" />
        </mxCell>
        <mxCell id="KTgzHnojF0-aBPa9-sYv-61" value="" style="edgeStyle=orthogonalEdgeStyle;rounded=0;orthogonalLoop=1;jettySize=auto;html=1;" parent="1" source="KTgzHnojF0-aBPa9-sYv-58" target="KTgzHnojF0-aBPa9-sYv-60" edge="1">
          <mxGeometry relative="1" as="geometry" />
        </mxCell>
        <mxCell id="KTgzHnojF0-aBPa9-sYv-58" value="设置platformAuthId" style="rounded=0;whiteSpace=wrap;html=1;" parent="1" vertex="1">
          <mxGeometry x="1820" y="650" width="120" height="60" as="geometry" />
        </mxCell>
        <mxCell id="KTgzHnojF0-aBPa9-sYv-63" value="" style="edgeStyle=orthogonalEdgeStyle;rounded=0;orthogonalLoop=1;jettySize=auto;html=1;" parent="1" source="KTgzHnojF0-aBPa9-sYv-60" target="KTgzHnojF0-aBPa9-sYv-62" edge="1">
          <mxGeometry relative="1" as="geometry" />
        </mxCell>
        <mxCell id="KTgzHnojF0-aBPa9-sYv-68" value="" style="edgeStyle=orthogonalEdgeStyle;rounded=0;orthogonalLoop=1;jettySize=auto;html=1;" parent="1" source="KTgzHnojF0-aBPa9-sYv-60" target="KTgzHnojF0-aBPa9-sYv-66" edge="1">
          <mxGeometry relative="1" as="geometry" />
        </mxCell>
        <mxCell id="KTgzHnojF0-aBPa9-sYv-60" value="auth[AuthType.guest]是否有值" style="rhombus;whiteSpace=wrap;html=1;" parent="1" vertex="1">
          <mxGeometry x="1790" y="760" width="180" height="92" as="geometry" />
        </mxCell>
        <mxCell id="KTgzHnojF0-aBPa9-sYv-64" style="edgeStyle=orthogonalEdgeStyle;rounded=0;orthogonalLoop=1;jettySize=auto;html=1;exitX=0.5;exitY=1;exitDx=0;exitDy=0;entryX=0.5;entryY=0;entryDx=0;entryDy=0;" parent="1" source="KTgzHnojF0-aBPa9-sYv-62" target="KTgzHnojF0-aBPa9-sYv-47" edge="1">
          <mxGeometry relative="1" as="geometry" />
        </mxCell>
        <mxCell id="KTgzHnojF0-aBPa9-sYv-62" value="调用userdata.start，走图一流程" style="rounded=0;whiteSpace=wrap;html=1;" parent="1" vertex="1">
          <mxGeometry x="1610" y="776" width="120" height="60" as="geometry" />
        </mxCell>
        <mxCell id="KTgzHnojF0-aBPa9-sYv-65" value="否" style="text;html=1;align=center;verticalAlign=middle;resizable=0;points=[];autosize=1;strokeColor=none;fillColor=none;" parent="1" vertex="1">
          <mxGeometry x="1740" y="778" width="40" height="30" as="geometry" />
        </mxCell>
        <mxCell id="KTgzHnojF0-aBPa9-sYv-74" value="" style="edgeStyle=orthogonalEdgeStyle;rounded=0;orthogonalLoop=1;jettySize=auto;html=1;" parent="1" source="KTgzHnojF0-aBPa9-sYv-66" target="KTgzHnojF0-aBPa9-sYv-72" edge="1">
          <mxGeometry relative="1" as="geometry" />
        </mxCell>
        <mxCell id="KTgzHnojF0-aBPa9-sYv-66" value="调用api.updateAuth接口更新auth" style="rounded=0;whiteSpace=wrap;html=1;" parent="1" vertex="1">
          <mxGeometry x="1820" y="900" width="120" height="60" as="geometry" />
        </mxCell>
        <mxCell id="KTgzHnojF0-aBPa9-sYv-75" style="edgeStyle=orthogonalEdgeStyle;rounded=0;orthogonalLoop=1;jettySize=auto;html=1;exitX=0;exitY=0.5;exitDx=0;exitDy=0;entryX=0.5;entryY=0;entryDx=0;entryDy=0;" parent="1" source="KTgzHnojF0-aBPa9-sYv-72" target="KTgzHnojF0-aBPa9-sYv-47" edge="1">
          <mxGeometry relative="1" as="geometry" />
        </mxCell>
        <mxCell id="KTgzHnojF0-aBPa9-sYv-77" style="edgeStyle=orthogonalEdgeStyle;rounded=0;orthogonalLoop=1;jettySize=auto;html=1;exitX=0.5;exitY=1;exitDx=0;exitDy=0;entryX=0.5;entryY=0;entryDx=0;entryDy=0;" parent="1" source="KTgzHnojF0-aBPa9-sYv-72" target="KTgzHnojF0-aBPa9-sYv-73" edge="1">
          <mxGeometry relative="1" as="geometry" />
        </mxCell>
        <mxCell id="KTgzHnojF0-aBPa9-sYv-72" value="接口调用是否成功" style="rhombus;whiteSpace=wrap;html=1;" parent="1" vertex="1">
          <mxGeometry x="1817.5" y="1000" width="125" height="80" as="geometry" />
        </mxCell>
        <mxCell id="KTgzHnojF0-aBPa9-sYv-78" style="edgeStyle=orthogonalEdgeStyle;rounded=0;orthogonalLoop=1;jettySize=auto;html=1;exitX=0.5;exitY=1;exitDx=0;exitDy=0;" parent="1" source="KTgzHnojF0-aBPa9-sYv-73" target="KTgzHnojF0-aBPa9-sYv-47" edge="1">
          <mxGeometry relative="1" as="geometry" />
        </mxCell>
        <mxCell id="KTgzHnojF0-aBPa9-sYv-73" value="设置startData，displayId，auth" style="whiteSpace=wrap;html=1;" parent="1" vertex="1">
          <mxGeometry x="1820" y="1140" width="120" height="60" as="geometry" />
        </mxCell>
        <mxCell id="KTgzHnojF0-aBPa9-sYv-76" value="否" style="text;html=1;align=center;verticalAlign=middle;resizable=0;points=[];autosize=1;strokeColor=none;fillColor=none;" parent="1" vertex="1">
          <mxGeometry x="1710" y="1008" width="40" height="30" as="geometry" />
        </mxCell>
        <mxCell id="KTgzHnojF0-aBPa9-sYv-79" value="是" style="text;html=1;align=center;verticalAlign=middle;resizable=0;points=[];autosize=1;strokeColor=none;fillColor=none;" parent="1" vertex="1">
          <mxGeometry x="1870" y="1098" width="40" height="30" as="geometry" />
        </mxCell>
      </root>
    </mxGraphModel>
  </diagram>
</mxfile>
